<?xml version="1.0" encoding="utf-8"?>
<!-- Generator: Adobe Illustrator 16.0.0, SVG Export Plug-In . SVG Version: 6.00 Build 0)  -->
<!DOCTYPE svg PUBLIC "-//W3C//DTD SVG 1.1//EN" "http://www.w3.org/Graphics/SVG/1.1/DTD/svg11.dtd" [
	<!ENTITY ns_flows "http://ns.adobe.com/Flows/1.0/">
	<!ENTITY ns_extend "http://ns.adobe.com/Extensibility/1.0/">
	<!ENTITY ns_ai "http://ns.adobe.com/AdobeIllustrator/10.0/">
	<!ENTITY ns_graphs "http://ns.adobe.com/Graphs/1.0/">
]>
<svg version="1.1" id="Layer_1" xmlns:x="&ns_extend;" xmlns:i="&ns_ai;" xmlns:graph="&ns_graphs;"
	 xmlns="http://www.w3.org/2000/svg" xmlns:xlink="http://www.w3.org/1999/xlink" xmlns:a="http://ns.adobe.com/AdobeSVGViewerExtensions/3.0/"
	 x="0px" y="0px" width="58.375px" height="65.084px" viewBox="0 0 58.375 65.084" enable-background="new 0 0 58.375 65.084"
	 xml:space="preserve">
<g>
	<polygon fill="#FFFFFF" points="29.187,1 10.671,28.733 10.67,28.732 0.253,44.336 29.187,52.126 58.122,44.338 	"/>
	<g>
		<path fill="#1B335F" d="M21.028,25.196c-0.211-0.211-0.494-0.34-0.814-0.34c-0.324,0-0.607,0.129-0.818,0.34
			c-0.209,0.209-0.338,0.492-0.338,0.814s0.129,0.605,0.338,0.815c0.211,0.21,0.494,0.339,0.818,0.339
			c0.32,0,0.604-0.129,0.814-0.339c0.209-0.21,0.338-0.493,0.338-0.815S21.237,25.405,21.028,25.196z"/>
		<path fill="#08519F" d="M39.315,26.01c0-0.322-0.127-0.605-0.338-0.814c-0.213-0.211-0.496-0.34-0.816-0.34
			c-0.322,0-0.604,0.129-0.814,0.34c-0.211,0.209-0.34,0.492-0.34,0.814s0.129,0.605,0.34,0.815s0.492,0.339,0.814,0.339
			c0.32,0,0.604-0.129,0.816-0.339C39.188,26.616,39.315,26.333,39.315,26.01z"/>
		<path fill="#08519F" d="M30.341,20.954c0-0.322-0.129-0.604-0.338-0.815c-0.211-0.21-0.492-0.337-0.816-0.339v2.309
			c0.324-0.002,0.605-0.129,0.816-0.337C30.212,21.559,30.341,21.275,30.341,20.954z"/>
		<path fill="#08519F" d="M47.472,31.087l-5.492,5.5v7.498c0,0.371-0.232,0.703-0.58,0.828l-5.547,1.615
			c-0.273,0.098-0.572,0.059-0.809-0.107s-0.377-0.434-0.377-0.723V32.942c0-0.231,0.09-0.451,0.254-0.615l2.418-2.473l0.061-1.027
			c-0.5-0.136-0.949-0.397-1.301-0.752c-0.527-0.525-0.855-1.26-0.855-2.064c0-0.803,0.328-1.538,0.855-2.064
			c0.525-0.525,1.26-0.854,2.063-0.854s1.539,0.329,2.064,0.854c0.527,0.526,0.855,1.262,0.855,2.064
			c0,0.805-0.328,1.539-0.855,2.064c-0.293,0.295-0.652,0.523-1.053,0.672l-0.094,1.543c-0.012,0.211-0.102,0.412-0.25,0.563
			L36.433,33.3v11.139l3.783-0.973v-7.244c0-0.232,0.094-0.457,0.258-0.622l5.783-5.793v-0.54L29.187,3.702v14.334
			c0.805,0,1.539,0.328,2.064,0.854c0.525,0.526,0.855,1.262,0.855,2.064c0,0.804-0.33,1.54-0.855,2.064
			c-0.326,0.326-0.73,0.574-1.182,0.719v16.728c0,0.488-0.395,0.881-0.883,0.883v9.225l26.527-7.141L47.472,31.087z"/>
		<path fill="#1B335F" d="M28.372,20.138c-0.211,0.212-0.34,0.493-0.34,0.815c0,0.321,0.129,0.605,0.34,0.817
			c0.209,0.21,0.494,0.337,0.814,0.337l0,0v-2.309l0,0C28.866,19.799,28.581,19.928,28.372,20.138z"/>
		<path fill="#1B335F" d="M29.187,41.348c-0.486,0-0.883-0.395-0.883-0.883V23.737c-0.451-0.145-0.855-0.395-1.182-0.719
			c-0.527-0.524-0.855-1.261-0.855-2.064c0-0.803,0.328-1.538,0.855-2.064c0.527-0.525,1.262-0.854,2.064-0.854l0,0V3.702
			L12.118,29.266v0.541l5.783,5.793c0.162,0.165,0.258,0.39,0.258,0.622v7.244l3.781,0.973V33.3l-2.396-2.448
			c-0.148-0.15-0.236-0.352-0.248-0.563l-0.094-1.543c-0.4-0.148-0.762-0.377-1.055-0.672c-0.525-0.525-0.855-1.26-0.854-2.064
			c-0.002-0.803,0.328-1.538,0.854-2.064c0.527-0.525,1.262-0.854,2.066-0.854c0.803,0,1.537,0.329,2.063,0.854
			c0.527,0.526,0.855,1.262,0.855,2.064c0,0.805-0.328,1.539-0.855,2.064c-0.352,0.354-0.803,0.616-1.303,0.752l0.063,1.027
			l2.416,2.473c0.164,0.164,0.254,0.384,0.254,0.615v12.757c0,0.289-0.141,0.557-0.377,0.723s-0.535,0.205-0.807,0.107l-5.547-1.615
			c-0.35-0.125-0.582-0.457-0.582-0.828v-7.498l-5.492-5.5L2.661,43.43l26.525,7.143V41.348L29.187,41.348z"/>
	</g>
</g>
<g>
	<path fill="#1B335F" d="M12.688,54.843H9.805v7.841H7.866v-7.841H5.022v-1.571h7.666V54.843z"/>
	<path fill="#1B335F" d="M17.277,59.238h-1.544v3.445h-1.939v-9.412h3.497c1.111,0,1.969,0.249,2.573,0.744
		c0.603,0.496,0.905,1.195,0.905,2.101c0,0.642-0.139,1.178-0.417,1.606c-0.278,0.429-0.7,0.77-1.264,1.023l2.036,3.847v0.091
		h-2.082L17.277,59.238z M15.733,57.668h1.564c0.488,0,0.864-0.124,1.132-0.372c0.267-0.248,0.4-0.589,0.4-1.024
		c0-0.443-0.126-0.793-0.378-1.048c-0.251-0.254-0.639-0.381-1.16-0.381h-1.558V57.668z"/>
	<path fill="#1B335F" d="M27.905,58.593h-3.723v2.534h4.37v1.557h-6.309v-9.412h6.295v1.571h-4.356v2.243h3.723V58.593z"/>
	<path fill="#1B335F" d="M35.002,60.744h-3.4l-0.646,1.939h-2.062l3.503-9.412h1.799l3.521,9.412h-2.063L35.002,60.744z
		 M32.125,59.173h2.354l-1.184-3.521L32.125,59.173z"/>
	<path fill="#1B335F" d="M42.08,59.238h-1.543v3.445h-1.939v-9.412h3.496c1.111,0,1.969,0.249,2.572,0.744
		c0.604,0.496,0.906,1.195,0.906,2.101c0,0.642-0.141,1.178-0.418,1.606s-0.699,0.77-1.264,1.023l2.035,3.847v0.091h-2.08
		L42.08,59.238z M40.537,57.668H42.1c0.486,0,0.863-0.124,1.131-0.372s0.402-0.589,0.402-1.024c0-0.443-0.125-0.793-0.379-1.048
		c-0.252-0.254-0.639-0.381-1.16-0.381h-1.557V57.668z"/>
	<path fill="#1B335F" d="M52.707,58.593h-3.723v2.534h4.369v1.557h-6.309v-9.412h6.295v1.571h-4.355v2.243h3.723V58.593z"/>
</g>
</svg>
